<mxfile host="app.diagrams.net" agent="Mozilla/5.0 (Windows NT 10.0; Win64; x64) AppleWebKit/537.36 (KHTML, like Gecko) Chrome/116.0.0.0 Safari/537.36" version="24.8.0">
  <diagram name="第 1 页" id="av5KjuyqEHX3sUqGi10H">
    <mxGraphModel dx="875" dy="445" grid="1" gridSize="10" guides="1" tooltips="1" connect="1" arrows="1" fold="1" page="1" pageScale="1" pageWidth="827" pageHeight="1169" math="0" shadow="0">
      <root>
        <mxCell id="0" />
        <mxCell id="1" parent="0" />
        <mxCell id="cbr13PLKzvlpnXsJmtyO-32" value="" style="rounded=1;whiteSpace=wrap;html=1;fontFamily=Times New Roman;fontSize=14;fillColor=#f5f5f5;fontColor=#333333;strokeColor=#666666;" vertex="1" parent="1">
          <mxGeometry x="375" y="879" width="145" height="220" as="geometry" />
        </mxCell>
        <mxCell id="cbr13PLKzvlpnXsJmtyO-2" value="&lt;span style=&quot;font-family: &amp;quot;Times New Roman&amp;quot;;&quot;&gt;&lt;font style=&quot;font-size: 14px;&quot;&gt;NamingManager&lt;/font&gt;&lt;/span&gt;" style="rounded=1;whiteSpace=wrap;html=1;dashed=1;dashPattern=8 8;shadow=0;fillColor=#f5f5f5;fontColor=#333333;strokeColor=#666666;" vertex="1" parent="1">
          <mxGeometry x="140" y="310" width="370" height="40" as="geometry" />
        </mxCell>
        <mxCell id="cbr13PLKzvlpnXsJmtyO-3" value="&lt;span style=&quot;font-family: &amp;quot;Times New Roman&amp;quot;; font-size: 14px;&quot;&gt;JNDI&amp;nbsp; SPI&lt;/span&gt;&lt;div&gt;&lt;div&gt;&lt;span style=&quot;font-family: &amp;quot;Times New Roman&amp;quot;; font-size: 14px;&quot;&gt;&lt;br&gt;&lt;/span&gt;&lt;/div&gt;&lt;/div&gt;" style="rounded=1;whiteSpace=wrap;html=1;dashed=1;dashPattern=8 8;fillColor=#f5f5f5;fontColor=#333333;strokeColor=#666666;" vertex="1" parent="1">
          <mxGeometry x="140" y="360" width="370" height="50" as="geometry" />
        </mxCell>
        <mxCell id="cbr13PLKzvlpnXsJmtyO-4" value="&lt;font face=&quot;Times New Roman&quot;&gt;LDAP&lt;/font&gt;" style="rounded=0;whiteSpace=wrap;html=1;" vertex="1" parent="1">
          <mxGeometry x="148" y="390" width="50" height="30" as="geometry" />
        </mxCell>
        <mxCell id="cbr13PLKzvlpnXsJmtyO-11" value="&lt;font face=&quot;Times New Roman&quot;&gt;DNS&lt;/font&gt;" style="rounded=0;whiteSpace=wrap;html=1;" vertex="1" parent="1">
          <mxGeometry x="250" y="390" width="40" height="30" as="geometry" />
        </mxCell>
        <mxCell id="cbr13PLKzvlpnXsJmtyO-12" value="&lt;font face=&quot;Times New Roman&quot;&gt;NIS&lt;/font&gt;" style="rounded=0;whiteSpace=wrap;html=1;" vertex="1" parent="1">
          <mxGeometry x="204" y="390" width="40" height="30" as="geometry" />
        </mxCell>
        <mxCell id="cbr13PLKzvlpnXsJmtyO-13" value="&lt;font face=&quot;Times New Roman&quot;&gt;NDS&lt;/font&gt;" style="rounded=0;whiteSpace=wrap;html=1;" vertex="1" parent="1">
          <mxGeometry x="295.5" y="390" width="40" height="30" as="geometry" />
        </mxCell>
        <mxCell id="cbr13PLKzvlpnXsJmtyO-14" value="&lt;font face=&quot;Times New Roman&quot;&gt;RMI&lt;/font&gt;" style="rounded=0;whiteSpace=wrap;html=1;" vertex="1" parent="1">
          <mxGeometry x="341" y="390" width="43" height="30" as="geometry" />
        </mxCell>
        <mxCell id="cbr13PLKzvlpnXsJmtyO-15" value="&lt;font face=&quot;Times New Roman&quot;&gt;CORBA&lt;/font&gt;" style="rounded=0;whiteSpace=wrap;html=1;" vertex="1" parent="1">
          <mxGeometry x="390" y="390" width="50" height="30" as="geometry" />
        </mxCell>
        <mxCell id="cbr13PLKzvlpnXsJmtyO-16" value="&lt;span style=&quot;font-family: &amp;quot;Times New Roman&amp;quot;;&quot;&gt;&lt;font style=&quot;font-size: 14px;&quot;&gt;JNDI API&lt;/font&gt;&lt;/span&gt;" style="rounded=1;whiteSpace=wrap;html=1;dashed=1;dashPattern=8 8;shadow=0;fillColor=#f5f5f5;fontColor=#333333;strokeColor=#666666;" vertex="1" parent="1">
          <mxGeometry x="140" y="260" width="370" height="40" as="geometry" />
        </mxCell>
        <mxCell id="cbr13PLKzvlpnXsJmtyO-17" value="&lt;span style=&quot;font-family: &amp;quot;Times New Roman&amp;quot;;&quot;&gt;&lt;font style=&quot;font-size: 14px;&quot;&gt;Java Application&lt;/font&gt;&lt;/span&gt;" style="rounded=1;whiteSpace=wrap;html=1;dashed=1;dashPattern=8 8;shadow=0;fillColor=#f5f5f5;fontColor=#333333;strokeColor=#666666;" vertex="1" parent="1">
          <mxGeometry x="140" y="210" width="370" height="40" as="geometry" />
        </mxCell>
        <mxCell id="cbr13PLKzvlpnXsJmtyO-20" value="" style="endArrow=classic;startArrow=classic;html=1;rounded=0;" edge="1" parent="1">
          <mxGeometry width="50" height="50" relative="1" as="geometry">
            <mxPoint x="173" y="461" as="sourcePoint" />
            <mxPoint x="172.57999999999998" y="426" as="targetPoint" />
          </mxGeometry>
        </mxCell>
        <mxCell id="cbr13PLKzvlpnXsJmtyO-21" value="" style="endArrow=classic;startArrow=classic;html=1;rounded=0;" edge="1" parent="1">
          <mxGeometry width="50" height="50" relative="1" as="geometry">
            <mxPoint x="224.18" y="461" as="sourcePoint" />
            <mxPoint x="223.76" y="426" as="targetPoint" />
          </mxGeometry>
        </mxCell>
        <mxCell id="cbr13PLKzvlpnXsJmtyO-22" value="" style="endArrow=classic;startArrow=classic;html=1;rounded=0;" edge="1" parent="1">
          <mxGeometry width="50" height="50" relative="1" as="geometry">
            <mxPoint x="270.18" y="461" as="sourcePoint" />
            <mxPoint x="269.76" y="426" as="targetPoint" />
          </mxGeometry>
        </mxCell>
        <mxCell id="cbr13PLKzvlpnXsJmtyO-23" value="" style="endArrow=classic;startArrow=classic;html=1;rounded=0;" edge="1" parent="1">
          <mxGeometry width="50" height="50" relative="1" as="geometry">
            <mxPoint x="315.68" y="461" as="sourcePoint" />
            <mxPoint x="315.26" y="426" as="targetPoint" />
          </mxGeometry>
        </mxCell>
        <mxCell id="cbr13PLKzvlpnXsJmtyO-24" value="" style="endArrow=classic;startArrow=classic;html=1;rounded=0;" edge="1" parent="1">
          <mxGeometry width="50" height="50" relative="1" as="geometry">
            <mxPoint x="362.68" y="461" as="sourcePoint" />
            <mxPoint x="362.26" y="426" as="targetPoint" />
          </mxGeometry>
        </mxCell>
        <mxCell id="cbr13PLKzvlpnXsJmtyO-25" value="" style="endArrow=classic;startArrow=classic;html=1;rounded=0;" edge="1" parent="1">
          <mxGeometry width="50" height="50" relative="1" as="geometry">
            <mxPoint x="415.18" y="461" as="sourcePoint" />
            <mxPoint x="414.76" y="426" as="targetPoint" />
          </mxGeometry>
        </mxCell>
        <mxCell id="cbr13PLKzvlpnXsJmtyO-27" value="&lt;font face=&quot;Times New Roman&quot;&gt;JNDI&amp;nbsp;&lt;/font&gt;&lt;div&gt;&lt;font face=&quot;Times New Roman&quot;&gt;Implementation&lt;br&gt;Possibilities&lt;/font&gt;&lt;/div&gt;" style="text;whiteSpace=wrap;html=1;" vertex="1" parent="1">
          <mxGeometry x="460" y="409" width="90" height="50" as="geometry" />
        </mxCell>
        <mxCell id="cbr13PLKzvlpnXsJmtyO-28" value="" style="shape=image;verticalLabelPosition=bottom;labelBackgroundColor=default;verticalAlign=top;aspect=fixed;imageAspect=0;image=https://www.researchgate.net/publication/233943469/figure/fig1/AS:339844241870853@1458036589586/Java-RMI-architecture.png;" vertex="1" parent="1">
          <mxGeometry x="540" y="530" width="412.5" height="246.19" as="geometry" />
        </mxCell>
        <mxCell id="cbr13PLKzvlpnXsJmtyO-29" value="" style="rounded=1;whiteSpace=wrap;html=1;fontFamily=Times New Roman;fontSize=14;fillColor=#f5f5f5;fontColor=#333333;strokeColor=#666666;" vertex="1" parent="1">
          <mxGeometry x="135" y="878" width="145" height="220" as="geometry" />
        </mxCell>
        <mxCell id="cbr13PLKzvlpnXsJmtyO-47" style="edgeStyle=orthogonalEdgeStyle;rounded=0;orthogonalLoop=1;jettySize=auto;html=1;exitX=0.25;exitY=1;exitDx=0;exitDy=0;entryX=0.25;entryY=0;entryDx=0;entryDy=0;" edge="1" parent="1" source="cbr13PLKzvlpnXsJmtyO-30" target="cbr13PLKzvlpnXsJmtyO-31">
          <mxGeometry relative="1" as="geometry" />
        </mxCell>
        <mxCell id="cbr13PLKzvlpnXsJmtyO-30" value="Client Object" style="rounded=0;whiteSpace=wrap;html=1;fontFamily=Times New Roman;fontSize=14;" vertex="1" parent="1">
          <mxGeometry x="162.5" y="895.5" width="90" height="60" as="geometry" />
        </mxCell>
        <mxCell id="cbr13PLKzvlpnXsJmtyO-46" style="edgeStyle=orthogonalEdgeStyle;rounded=0;orthogonalLoop=1;jettySize=auto;html=1;exitX=0.75;exitY=0;exitDx=0;exitDy=0;entryX=0.75;entryY=1;entryDx=0;entryDy=0;" edge="1" parent="1" source="cbr13PLKzvlpnXsJmtyO-31" target="cbr13PLKzvlpnXsJmtyO-30">
          <mxGeometry relative="1" as="geometry" />
        </mxCell>
        <mxCell id="cbr13PLKzvlpnXsJmtyO-48" style="edgeStyle=orthogonalEdgeStyle;rounded=0;orthogonalLoop=1;jettySize=auto;html=1;exitX=0.25;exitY=1;exitDx=0;exitDy=0;entryX=0.75;entryY=1;entryDx=0;entryDy=0;" edge="1" parent="1" source="cbr13PLKzvlpnXsJmtyO-31" target="cbr13PLKzvlpnXsJmtyO-39">
          <mxGeometry relative="1" as="geometry">
            <Array as="points">
              <mxPoint x="185" y="1130" />
              <mxPoint x="472" y="1130" />
            </Array>
          </mxGeometry>
        </mxCell>
        <mxCell id="cbr13PLKzvlpnXsJmtyO-31" value="Stub" style="rounded=0;whiteSpace=wrap;html=1;fontFamily=Times New Roman;fontSize=14;" vertex="1" parent="1">
          <mxGeometry x="162.5" y="1032" width="90" height="30" as="geometry" />
        </mxCell>
        <mxCell id="cbr13PLKzvlpnXsJmtyO-51" style="edgeStyle=orthogonalEdgeStyle;rounded=0;orthogonalLoop=1;jettySize=auto;html=1;exitX=0.25;exitY=1;exitDx=0;exitDy=0;entryX=0.25;entryY=0;entryDx=0;entryDy=0;startArrow=classic;startFill=1;" edge="1" parent="1" source="cbr13PLKzvlpnXsJmtyO-33" target="cbr13PLKzvlpnXsJmtyO-35">
          <mxGeometry relative="1" as="geometry" />
        </mxCell>
        <mxCell id="cbr13PLKzvlpnXsJmtyO-33" value="Registry" style="rounded=0;whiteSpace=wrap;html=1;fontFamily=Times New Roman;fontSize=14;" vertex="1" parent="1">
          <mxGeometry x="400.5" y="905" width="90" height="28" as="geometry" />
        </mxCell>
        <mxCell id="cbr13PLKzvlpnXsJmtyO-49" style="edgeStyle=orthogonalEdgeStyle;rounded=0;orthogonalLoop=1;jettySize=auto;html=1;exitX=0.25;exitY=1;exitDx=0;exitDy=0;entryX=0.25;entryY=0;entryDx=0;entryDy=0;" edge="1" parent="1" source="cbr13PLKzvlpnXsJmtyO-35" target="cbr13PLKzvlpnXsJmtyO-39">
          <mxGeometry relative="1" as="geometry" />
        </mxCell>
        <mxCell id="cbr13PLKzvlpnXsJmtyO-35" value="Remote Object" style="rounded=0;whiteSpace=wrap;html=1;fontFamily=Times New Roman;fontSize=14;" vertex="1" parent="1">
          <mxGeometry x="398.75" y="997" width="97.5" height="28" as="geometry" />
        </mxCell>
        <mxCell id="cbr13PLKzvlpnXsJmtyO-52" style="edgeStyle=orthogonalEdgeStyle;rounded=0;orthogonalLoop=1;jettySize=auto;html=1;exitX=0;exitY=0.5;exitDx=0;exitDy=0;endArrow=none;endFill=0;" edge="1" parent="1" source="cbr13PLKzvlpnXsJmtyO-36">
          <mxGeometry relative="1" as="geometry">
            <mxPoint x="423" y="967" as="targetPoint" />
            <Array as="points">
              <mxPoint x="430" y="967" />
              <mxPoint x="430" y="967" />
            </Array>
          </mxGeometry>
        </mxCell>
        <mxCell id="cbr13PLKzvlpnXsJmtyO-36" value="Server" style="rounded=0;whiteSpace=wrap;html=1;fontFamily=Times New Roman;fontSize=14;" vertex="1" parent="1">
          <mxGeometry x="440" y="953.5" width="52.5" height="27" as="geometry" />
        </mxCell>
        <mxCell id="cbr13PLKzvlpnXsJmtyO-45" style="edgeStyle=orthogonalEdgeStyle;rounded=0;orthogonalLoop=1;jettySize=auto;html=1;exitX=0.25;exitY=1;exitDx=0;exitDy=0;entryX=0.75;entryY=1;entryDx=0;entryDy=0;" edge="1" parent="1" source="cbr13PLKzvlpnXsJmtyO-39" target="cbr13PLKzvlpnXsJmtyO-31">
          <mxGeometry relative="1" as="geometry">
            <Array as="points">
              <mxPoint x="423" y="1110" />
              <mxPoint x="230" y="1110" />
            </Array>
          </mxGeometry>
        </mxCell>
        <mxCell id="cbr13PLKzvlpnXsJmtyO-50" style="edgeStyle=orthogonalEdgeStyle;rounded=0;orthogonalLoop=1;jettySize=auto;html=1;exitX=0.75;exitY=0;exitDx=0;exitDy=0;entryX=0.75;entryY=1;entryDx=0;entryDy=0;" edge="1" parent="1" source="cbr13PLKzvlpnXsJmtyO-39" target="cbr13PLKzvlpnXsJmtyO-35">
          <mxGeometry relative="1" as="geometry" />
        </mxCell>
        <mxCell id="cbr13PLKzvlpnXsJmtyO-39" value="Skeleton" style="rounded=0;whiteSpace=wrap;html=1;fontFamily=Times New Roman;fontSize=14;" vertex="1" parent="1">
          <mxGeometry x="398.75" y="1058" width="97.5" height="26" as="geometry" />
        </mxCell>
        <mxCell id="cbr13PLKzvlpnXsJmtyO-43" style="edgeStyle=orthogonalEdgeStyle;rounded=0;orthogonalLoop=1;jettySize=auto;html=1;exitX=1;exitY=0.25;exitDx=0;exitDy=0;entryX=0.006;entryY=0.408;entryDx=0;entryDy=0;entryPerimeter=0;" edge="1" parent="1" target="cbr13PLKzvlpnXsJmtyO-33">
          <mxGeometry relative="1" as="geometry">
            <mxPoint x="252.5" y="916.5" as="sourcePoint" />
          </mxGeometry>
        </mxCell>
        <mxCell id="cbr13PLKzvlpnXsJmtyO-44" style="edgeStyle=orthogonalEdgeStyle;rounded=0;orthogonalLoop=1;jettySize=auto;html=1;exitX=0;exitY=0.75;exitDx=0;exitDy=0;entryX=1.003;entryY=0.407;entryDx=0;entryDy=0;entryPerimeter=0;" edge="1" parent="1" source="cbr13PLKzvlpnXsJmtyO-33">
          <mxGeometry relative="1" as="geometry">
            <mxPoint x="252.76999999999998" y="925.9200000000001" as="targetPoint" />
          </mxGeometry>
        </mxCell>
        <mxCell id="cbr13PLKzvlpnXsJmtyO-55" value="2" style="ellipse;whiteSpace=wrap;html=1;aspect=fixed;fontFamily=Times New Roman;" vertex="1" parent="1">
          <mxGeometry x="317.5" y="914.5" width="15" height="15" as="geometry" />
        </mxCell>
        <mxCell id="cbr13PLKzvlpnXsJmtyO-53" value="1" style="ellipse;whiteSpace=wrap;html=1;aspect=fixed;fontFamily=Times New Roman;movable=1;resizable=1;rotatable=1;deletable=1;editable=1;locked=0;connectable=1;" vertex="1" parent="1">
          <mxGeometry x="416" y="960" width="15" height="15" as="geometry" />
        </mxCell>
        <mxCell id="cbr13PLKzvlpnXsJmtyO-59" value="3" style="ellipse;whiteSpace=wrap;html=1;aspect=fixed;fontFamily=Times New Roman;" vertex="1" parent="1">
          <mxGeometry x="177" y="984" width="15" height="15" as="geometry" />
        </mxCell>
        <mxCell id="cbr13PLKzvlpnXsJmtyO-60" value="4" style="ellipse;whiteSpace=wrap;html=1;aspect=fixed;fontFamily=Times New Roman;" vertex="1" parent="1">
          <mxGeometry x="317.5" y="1123" width="15" height="15" as="geometry" />
        </mxCell>
        <mxCell id="cbr13PLKzvlpnXsJmtyO-61" value="6" style="ellipse;whiteSpace=wrap;html=1;aspect=fixed;fontFamily=Times New Roman;" vertex="1" parent="1">
          <mxGeometry x="416" y="1031" width="15" height="15" as="geometry" />
        </mxCell>
        <mxCell id="cbr13PLKzvlpnXsJmtyO-62" value="5" style="ellipse;whiteSpace=wrap;html=1;aspect=fixed;fontFamily=Times New Roman;" vertex="1" parent="1">
          <mxGeometry x="464.5" y="1038" width="15" height="15" as="geometry" />
        </mxCell>
        <mxCell id="cbr13PLKzvlpnXsJmtyO-65" value="8" style="ellipse;whiteSpace=wrap;html=1;aspect=fixed;fontFamily=Times New Roman;" vertex="1" parent="1">
          <mxGeometry x="223" y="984" width="15" height="15" as="geometry" />
        </mxCell>
        <mxCell id="cbr13PLKzvlpnXsJmtyO-66" value="7" style="ellipse;whiteSpace=wrap;html=1;aspect=fixed;fontFamily=Times New Roman;" vertex="1" parent="1">
          <mxGeometry x="317.5" y="1103" width="15" height="15" as="geometry" />
        </mxCell>
        <mxCell id="cbr13PLKzvlpnXsJmtyO-72" value="&lt;font face=&quot;Times New Roman&quot; style=&quot;font-size: 14px;&quot;&gt;Client Host&lt;/font&gt;" style="text;html=1;align=center;verticalAlign=middle;whiteSpace=wrap;rounded=0;fontStyle=1" vertex="1" parent="1">
          <mxGeometry x="162.5" y="848" width="90" height="30" as="geometry" />
        </mxCell>
        <mxCell id="cbr13PLKzvlpnXsJmtyO-73" value="&lt;font face=&quot;Times New Roman&quot; style=&quot;font-size: 14px;&quot;&gt;Server Host&lt;/font&gt;" style="text;html=1;align=center;verticalAlign=middle;whiteSpace=wrap;rounded=0;fontStyle=1" vertex="1" parent="1">
          <mxGeometry x="402.5" y="848" width="90" height="30" as="geometry" />
        </mxCell>
        <mxCell id="cbr13PLKzvlpnXsJmtyO-74" value="" style="rounded=1;whiteSpace=wrap;html=1;fontFamily=Times New Roman;fontSize=14;fillColor=#f5f5f5;fontColor=#333333;strokeColor=#666666;" vertex="1" parent="1">
          <mxGeometry x="1170" y="864" width="145" height="220" as="geometry" />
        </mxCell>
        <mxCell id="cbr13PLKzvlpnXsJmtyO-75" value="" style="rounded=1;whiteSpace=wrap;html=1;fontFamily=Times New Roman;fontSize=14;fillColor=#f5f5f5;fontColor=#333333;strokeColor=#666666;" vertex="1" parent="1">
          <mxGeometry x="930" y="863" width="145" height="220" as="geometry" />
        </mxCell>
        <mxCell id="cbr13PLKzvlpnXsJmtyO-76" style="edgeStyle=orthogonalEdgeStyle;rounded=0;orthogonalLoop=1;jettySize=auto;html=1;exitX=0.25;exitY=1;exitDx=0;exitDy=0;entryX=0.25;entryY=0;entryDx=0;entryDy=0;" edge="1" parent="1" source="cbr13PLKzvlpnXsJmtyO-77" target="cbr13PLKzvlpnXsJmtyO-80">
          <mxGeometry relative="1" as="geometry" />
        </mxCell>
        <mxCell id="cbr13PLKzvlpnXsJmtyO-77" value="Client Object" style="rounded=0;whiteSpace=wrap;html=1;fontFamily=Times New Roman;fontSize=14;" vertex="1" parent="1">
          <mxGeometry x="957.5" y="880.5" width="90" height="60" as="geometry" />
        </mxCell>
        <mxCell id="cbr13PLKzvlpnXsJmtyO-78" style="edgeStyle=orthogonalEdgeStyle;rounded=0;orthogonalLoop=1;jettySize=auto;html=1;exitX=0.75;exitY=0;exitDx=0;exitDy=0;entryX=0.75;entryY=1;entryDx=0;entryDy=0;" edge="1" parent="1" source="cbr13PLKzvlpnXsJmtyO-80" target="cbr13PLKzvlpnXsJmtyO-77">
          <mxGeometry relative="1" as="geometry" />
        </mxCell>
        <mxCell id="cbr13PLKzvlpnXsJmtyO-79" style="edgeStyle=orthogonalEdgeStyle;rounded=0;orthogonalLoop=1;jettySize=auto;html=1;exitX=0.25;exitY=1;exitDx=0;exitDy=0;entryX=0.75;entryY=1;entryDx=0;entryDy=0;" edge="1" parent="1" source="cbr13PLKzvlpnXsJmtyO-80" target="cbr13PLKzvlpnXsJmtyO-89">
          <mxGeometry relative="1" as="geometry">
            <Array as="points">
              <mxPoint x="980" y="1110" />
              <mxPoint x="1267" y="1110" />
            </Array>
          </mxGeometry>
        </mxCell>
        <mxCell id="cbr13PLKzvlpnXsJmtyO-80" value="Stub" style="rounded=0;whiteSpace=wrap;html=1;fontFamily=Times New Roman;fontSize=14;" vertex="1" parent="1">
          <mxGeometry x="957.5" y="1017" width="90" height="30" as="geometry" />
        </mxCell>
        <mxCell id="cbr13PLKzvlpnXsJmtyO-81" style="edgeStyle=orthogonalEdgeStyle;rounded=0;orthogonalLoop=1;jettySize=auto;html=1;exitX=0.25;exitY=1;exitDx=0;exitDy=0;entryX=0.25;entryY=0;entryDx=0;entryDy=0;startArrow=classic;startFill=1;" edge="1" parent="1" source="cbr13PLKzvlpnXsJmtyO-82" target="cbr13PLKzvlpnXsJmtyO-84">
          <mxGeometry relative="1" as="geometry" />
        </mxCell>
        <mxCell id="cbr13PLKzvlpnXsJmtyO-82" value="Registry" style="rounded=0;whiteSpace=wrap;html=1;fontFamily=Times New Roman;fontSize=14;" vertex="1" parent="1">
          <mxGeometry x="1195.5" y="890" width="90" height="28" as="geometry" />
        </mxCell>
        <mxCell id="cbr13PLKzvlpnXsJmtyO-83" style="edgeStyle=orthogonalEdgeStyle;rounded=0;orthogonalLoop=1;jettySize=auto;html=1;exitX=0.25;exitY=1;exitDx=0;exitDy=0;entryX=0.25;entryY=0;entryDx=0;entryDy=0;" edge="1" parent="1" source="cbr13PLKzvlpnXsJmtyO-84" target="cbr13PLKzvlpnXsJmtyO-89">
          <mxGeometry relative="1" as="geometry" />
        </mxCell>
        <mxCell id="cbr13PLKzvlpnXsJmtyO-84" value="Remote Object" style="rounded=0;whiteSpace=wrap;html=1;fontFamily=Times New Roman;fontSize=14;" vertex="1" parent="1">
          <mxGeometry x="1193.75" y="982" width="97.5" height="28" as="geometry" />
        </mxCell>
        <mxCell id="cbr13PLKzvlpnXsJmtyO-85" style="edgeStyle=orthogonalEdgeStyle;rounded=0;orthogonalLoop=1;jettySize=auto;html=1;exitX=0;exitY=0.5;exitDx=0;exitDy=0;endArrow=none;endFill=0;" edge="1" parent="1" source="cbr13PLKzvlpnXsJmtyO-86">
          <mxGeometry relative="1" as="geometry">
            <mxPoint x="1218" y="952" as="targetPoint" />
            <Array as="points">
              <mxPoint x="1225" y="952" />
              <mxPoint x="1225" y="952" />
            </Array>
          </mxGeometry>
        </mxCell>
        <mxCell id="cbr13PLKzvlpnXsJmtyO-86" value="Server" style="rounded=0;whiteSpace=wrap;html=1;fontFamily=Times New Roman;fontSize=14;" vertex="1" parent="1">
          <mxGeometry x="1235" y="938.5" width="52.5" height="27" as="geometry" />
        </mxCell>
        <mxCell id="cbr13PLKzvlpnXsJmtyO-87" style="edgeStyle=orthogonalEdgeStyle;rounded=0;orthogonalLoop=1;jettySize=auto;html=1;exitX=0.25;exitY=1;exitDx=0;exitDy=0;entryX=0.75;entryY=1;entryDx=0;entryDy=0;spacingBottom=3;" edge="1" parent="1" source="cbr13PLKzvlpnXsJmtyO-89" target="cbr13PLKzvlpnXsJmtyO-80">
          <mxGeometry relative="1" as="geometry">
            <Array as="points">
              <mxPoint x="1218" y="1090" />
              <mxPoint x="1025" y="1090" />
            </Array>
          </mxGeometry>
        </mxCell>
        <mxCell id="cbr13PLKzvlpnXsJmtyO-88" style="edgeStyle=orthogonalEdgeStyle;rounded=0;orthogonalLoop=1;jettySize=auto;html=1;exitX=0.75;exitY=0;exitDx=0;exitDy=0;entryX=0.75;entryY=1;entryDx=0;entryDy=0;" edge="1" parent="1" source="cbr13PLKzvlpnXsJmtyO-89" target="cbr13PLKzvlpnXsJmtyO-84">
          <mxGeometry relative="1" as="geometry" />
        </mxCell>
        <mxCell id="cbr13PLKzvlpnXsJmtyO-89" value="Skeleton" style="rounded=0;whiteSpace=wrap;html=1;fontFamily=Times New Roman;fontSize=14;" vertex="1" parent="1">
          <mxGeometry x="1193.75" y="1043" width="97.5" height="26" as="geometry" />
        </mxCell>
        <mxCell id="cbr13PLKzvlpnXsJmtyO-90" style="edgeStyle=orthogonalEdgeStyle;rounded=0;orthogonalLoop=1;jettySize=auto;html=1;exitX=1;exitY=0.25;exitDx=0;exitDy=0;entryX=0.006;entryY=0.408;entryDx=0;entryDy=0;entryPerimeter=0;" edge="1" parent="1" target="cbr13PLKzvlpnXsJmtyO-82">
          <mxGeometry relative="1" as="geometry">
            <mxPoint x="1047.5" y="901.5" as="sourcePoint" />
          </mxGeometry>
        </mxCell>
        <mxCell id="cbr13PLKzvlpnXsJmtyO-91" style="edgeStyle=orthogonalEdgeStyle;rounded=0;orthogonalLoop=1;jettySize=auto;html=1;exitX=0;exitY=0.75;exitDx=0;exitDy=0;entryX=1.003;entryY=0.407;entryDx=0;entryDy=0;entryPerimeter=0;" edge="1" parent="1" source="cbr13PLKzvlpnXsJmtyO-82">
          <mxGeometry relative="1" as="geometry">
            <mxPoint x="1047.77" y="910.9200000000001" as="targetPoint" />
          </mxGeometry>
        </mxCell>
        <mxCell id="cbr13PLKzvlpnXsJmtyO-100" value="&lt;font face=&quot;Times New Roman&quot; style=&quot;font-size: 14px;&quot;&gt;Client Host&lt;/font&gt;" style="text;html=1;align=center;verticalAlign=middle;whiteSpace=wrap;rounded=0;fontStyle=1" vertex="1" parent="1">
          <mxGeometry x="957.5" y="833" width="90" height="30" as="geometry" />
        </mxCell>
        <mxCell id="cbr13PLKzvlpnXsJmtyO-101" value="&lt;font face=&quot;Times New Roman&quot; style=&quot;font-size: 14px;&quot;&gt;Server Host&lt;/font&gt;" style="text;html=1;align=center;verticalAlign=middle;whiteSpace=wrap;rounded=0;fontStyle=1" vertex="1" parent="1">
          <mxGeometry x="1197.5" y="833" width="90" height="30" as="geometry" />
        </mxCell>
        <mxCell id="cbr13PLKzvlpnXsJmtyO-103" value="" style="shape=image;verticalLabelPosition=bottom;labelBackgroundColor=default;verticalAlign=top;aspect=fixed;imageAspect=0;image=https://www.radware.com/RadwareSite/MediaLibraries/Images/log4shell-vulnerability.jpg;" vertex="1" parent="1">
          <mxGeometry x="930" y="1640" width="567" height="300.98" as="geometry" />
        </mxCell>
        <mxCell id="cbr13PLKzvlpnXsJmtyO-104" value="" style="rounded=1;whiteSpace=wrap;html=1;fillColor=#fef2f2;strokeColor=#9c5f6b;" vertex="1" parent="1">
          <mxGeometry x="940" y="1990" width="150" height="270" as="geometry" />
        </mxCell>
        <mxCell id="cbr13PLKzvlpnXsJmtyO-111" style="edgeStyle=orthogonalEdgeStyle;rounded=0;orthogonalLoop=1;jettySize=auto;html=1;exitX=1;exitY=0.5;exitDx=0;exitDy=0;entryX=0;entryY=0.5;entryDx=0;entryDy=0;" edge="1" parent="1" source="cbr13PLKzvlpnXsJmtyO-106" target="cbr13PLKzvlpnXsJmtyO-110">
          <mxGeometry relative="1" as="geometry" />
        </mxCell>
        <mxCell id="cbr13PLKzvlpnXsJmtyO-106" value="" style="shape=image;verticalLabelPosition=bottom;labelBackgroundColor=default;verticalAlign=top;aspect=fixed;imageAspect=0;image=https://cdn-icons-png.flaticon.com/512/6463/6463351.png;" vertex="1" parent="1">
          <mxGeometry x="989.5" y="1950" width="58" height="58" as="geometry" />
        </mxCell>
        <mxCell id="cbr13PLKzvlpnXsJmtyO-108" value="" style="shape=image;verticalLabelPosition=bottom;labelBackgroundColor=default;verticalAlign=top;aspect=fixed;imageAspect=0;image=https://cdn-icons-png.flaticon.com/512/157/157359.png;imageBackground=default;" vertex="1" parent="1">
          <mxGeometry x="850" y="1800" width="52" height="52" as="geometry" />
        </mxCell>
        <mxCell id="cbr13PLKzvlpnXsJmtyO-109" value="LDAP Service" style="shape=image;verticalLabelPosition=bottom;labelBackgroundColor=none;verticalAlign=top;aspect=fixed;imageAspect=0;image=https://cdn-icons-png.freepik.com/512/8875/8875100.png;fontFamily=Times New Roman;" vertex="1" parent="1">
          <mxGeometry x="985" y="2020" width="60" height="60" as="geometry" />
        </mxCell>
        <mxCell id="cbr13PLKzvlpnXsJmtyO-110" value="" style="shape=image;verticalLabelPosition=bottom;labelBackgroundColor=default;verticalAlign=top;aspect=fixed;imageAspect=0;image=https://cdn-icons-png.freepik.com/512/8875/8875100.png;" vertex="1" parent="1">
          <mxGeometry x="1250" y="1950" width="60" height="60" as="geometry" />
        </mxCell>
        <mxCell id="cbr13PLKzvlpnXsJmtyO-112" value="Web Service&#xa;(Provide malicious &#xa;Java .class file)" style="shape=image;verticalLabelPosition=bottom;labelBackgroundColor=none;verticalAlign=top;aspect=fixed;imageAspect=0;image=https://cdn-icons-png.freepik.com/512/8875/8875100.png;fontFamily=Times New Roman;" vertex="1" parent="1">
          <mxGeometry x="985" y="2140" width="60" height="60" as="geometry" />
        </mxCell>
        <mxCell id="cbr13PLKzvlpnXsJmtyO-114" value="" style="shape=image;verticalLabelPosition=bottom;labelBackgroundColor=default;verticalAlign=top;aspect=fixed;imageAspect=0;image=data:image/png,iVBORw0KGgoAAAANSUhEUgAAAMgAAADICAYAAACtWK6eAAAAAXNSR0IArs4c6QAAFkhJREFUeF7tnX+MVWeZx7/PnWFmin8UScucc4YhDMYUWkPTVWjRVbs/Wg1owa0pTaw/tppWk9JCERaXwrq2rGwr/UUTbWO7umBSjF2hK1ipu6t2FQq1brtWlhgZwjDn3KENwh/SGZi5z+Y9c+cyP+695/fv5yZNmvCe532e7/N+5j0/3vd5CfKLRAE+dqwTbW09aGmZgxLPRgUGGJ0gXAZgJoBLAVzhsvOjAM4COA3GWyAMoAQTFTqJkZETOH++l+bNG3BpS5p5UIA8tJWmdRTgcnkWKpVrQLwQoKsALACwOCGxDgE4AvAbYHodpdJvSNNOJeRLLroVQDymkS1rEYjfD+YlAF0LYK5HE3E3Pw7wy2A6CKJfkq4fjtuBLPcngDhkj01zPkp8A0B/CcaKLCe75jvzHpTwH6jQT8kwjuQipoiCEEDq3TZZ1ocB/jiApdVbpojkT4VZBcg+YORHpHf/LBUepcgJAaSaDDbNDwL4JAifANCdohzF5wrjJIB/A/ADMoyX4us4vT0VGhAuH+9Bpe1TIKwCMCu9aUrEs1MgbAfOf4+0ub2JeJCCTgsJCJfLN6FSuR2E5SnIQfpdYOxBqfQMadrz6Xc2XA8LAwgzt8OyvgTCFz18fwhX7exbOwrCN9H5p28RvXso++E4R5B7QHhgoBM8sgqMjc5ySAvXChC24Nzg9rx/oMwtIHzihIFprfcCWOs66dLQjwLb0DptG11+ueXn4rRfkztAuLd3Btrb/w6EDWkXP1f+MW9Fx+BWmvkutSQmN79cAcKWtQ5gdSul1jnJL24FCGfA/E+kdz0Ud9dR9ZcLQLjcvxJM/1CAj3pRjYOw7R4B6Kuk698P23Dc9jINCFvWVWDeIq9r4x42LvtTS1qotJF0/Q2XV6SuWWYBYcvaBPDXUqeoOFRHgcpm0mffn0VpMgeIvSSE8DCA92VR8AL7/AoY92ZtCUumAGHLVDPGpgIPsjyEfj/pxuasBJIJQLivbyFaW74NYFFWhBU/mypwGKWRL1Bn9+tp1yn1gLBp3gHCk2kXUvzzoQDjTjKMp3xcGdslqQaETfNJEO6ITQ3pKH4FGE+RYdwZf8fuekwlIPyWOR8X+F8Aus5dGNIq2wrwQTDdnsbdjakDhPv7l6OFvgPGjGwnXbz3qMBZEH+WtK49Hq+LtHmqAGHTXA3CI5FGLMbTrQBhDWnGo2lxMjWAsGV+Q1bepmVYJO7HNtKNLyfuBYBUAMKmuQOE29IgiPiQEgUIO0kzPp20N4kCYu/yGyg/B+ZlSQsh/adSgX0YHLqZenoGk/IuMUD4zJl34ty5F0F4b1LBS78ZUIDxa4yM3Ejd3aeT8DYRQOy6tR0dewWOJFKewT4VJIODy5LY3hs7IAJHBgdoGlxOCJJYAeG+vploadkvM0caRlwGfVCQTJ9+A82Y8ce4vI8NEO7t7UB7+38LHHGlNqf9KEh0/QNEFEvZofgAscy91Vq3Oc2chBWbAkR7SdM/Fkd/sQDCZXMHWL5zxJHQwvTB2ElG9N9JIgdEvpAXZsgmEWjkX9wjBYTL5mqwrK1KYuQUpk/GGjKiW7sVGSBc7l8Opt2FSZQEmpwCFV5BXdGsAo4EEDbNBSAckAJuyY2ZQvWsCta1YgldZvxf2HFHA4jVf0A2O4WdKrHXXAE+SHrXkrBVCh0Q2SYbdorEnmsFIti+GyogUmDBdSqlYVQKhFwIIjRAeKBvISotr0UVt9gVBVwrMDxyNXWHU1IoPEAsUx1iL3WrXGdRGkaowGHSjcVh2A8FEKl4GEYqxEbICoRSwTEwINVaub8IOTgxJwoEV4DxoaC1gIMDYpmHpZB08FyKhUgUeIV0I9BtfyBA2Dq5CSjJEQSR5FaMhqMAbSZd9330gm9A7MNrwL8NJwixIgpEqQC9x+8hPv4BMft3g2h5lGGJbVEgFAUYe8gwVvix5QsQtqxbAN7lp0O5RhRIRAHiW0nr8jxmfQJi/k4OzEwkzdKpfwWOkG5c6fVyz4Cw1b8OoAe9diTtRYHkFaD1pOuejqj2BAif/sOlOH/Jcam8nnyqxQNfCpzF4NBc6uk54/Zqb4CY/V8H0Qa3xrPQjq0BDO/bb7vK5VNZcNm1j6TNQuvSG0F6p+trct+QsZUM4ytu43QNCL/5po7hC6Zbw2lvp8AY2rINlVfzvb5SwdG2cS1a/uzqtKckPv8uDHfRnDmuxrJ7QHJ0PMHIq69h6K718SUk4Z4EkikJcF3swRUgdrnQSzrKCec5tO4H71qf+5ljslgCySRFSi0adXYOOA0qd4CUzQfA2OhkLAv/Prx3P85v2ZYFV0P3USAZJylhC2nGfU4iOwLC/Pt2lN+R2PkMTgF4/XcFh4KkqD+BZFzmNb3DqYSpMyBl8x4wUnNmXNCB/fbNn4F6QC/yTyCpZt9FTS1nQCxTlVK5Ii8D6tz7P9I0lGmfvw3TPp/4yV+OcjeKo1R9W+X0dk4gsSU+Sroxv5nYTQHhcvkmcCVVx/I6jhyHBs0AaX/iwcy8Dm0UR+uyGzHt9ttcvcIWSNQpnaXlpGnPNxo2zQExzd0g5GrFbqOBpQbLJc/9a1D+Yru+GSDqu4fb7zyFh8RhpW9DQLh8vAfcdiy2jMfUkdPAismNwN24icMLJB1PPFTcL+50fh5pc3vrJaUJIOZ9YPjeiRV4BERkwM3AiqjrUM26jUMgcSE7YxMZxgPeALFM9apnlgvzmWridmClPSgvcQgkjtk8RbpRd8Fa3Rkkz5VKvAwsR1kTbOA1DoHEIVkNKqA0AuQxEO5OMP+Rde11YEXmSEDDfuIQSJqIznicDOOeyS0aAdIHwuyAOUzl5X4GVhoD8RuHQNIwm32kG3McAWGr73qg5b/SOCjC8MnvwAqj7zBtBIlDIGmUCbqedP3n4/91ygyS9zMFgwysMAd4UFtB4xBI6mZgyjL4eoDkuiBD0IEVdGCHdX0YcQgkU7IxpbDDBECqR6cpQHL7C2NgpUGcsOIQSCZlk7GAjItHuU0EpNy/CkyPp2EAROVDWAMrKv/c2m22WLHjCW9FZ9xCohZCerXtNp7UtCO+m7Su7WP+TJpB8l8tMe+A+F1T5gYSv7ZTM/jdOELYTZrxifqAWCa7sZHlNnkHROXG75J9N5BM/9VPspx+V76TbtQmjtr/sGUtAlidEpXrXxBA1ACqWOXQN1ypv8xeq4447WtRNtWyd68/LqsySC82jLEIgAC0mHRdHeuBi4CY5moQHvEqaNba+wXkwtM7cOHpnZGF6/WvflKFJwoBCGE1acZjEwGx+p8FaGVkIyAlhv0AElehBy+QCCBRDijeRXrXrZMAMdV6+LlRdpsG234AiavQg5eH4LignZyzQswgwHHSjZ4aIFwuzwJXClHJwA8gcf219voaNS5wx0NSEEDUVtxO0rRT9jMIm+ZHQHghDX/ho/bBDyBx/bX2cotl5y2B8qmFAYTxUTKMn4wCUqAjDfwAojSK+iFdFVtQe8n9/JRvzd48+bHZ6JrCAAJeT3rXQ1VAzO8A+GyYQqbVll9Axv5iq7q+Yf/UK94wKrCH9Rp6+Mc/bViatTiA4LukG58bA+RlAIvDTnwa7QUBJI3xROFTs2ebAgFyiHTj2jFAcv8FfWwgCSDOSAkgoxqpL+qUt8rtTukXQJwUgl3cu1H94gLNIMDbgxrxyZPXoaV0wFm2fLQQQJzzKIBUNRqpLKGiHeksgAggzgqMtaCVxAPmvaigMAdmCCDOw0NmkKpGJaylvO9BnzwcBBABxFmBWottxKa5AwTv66I99JKmpgKIczZkBqlqxNipZpAfA/ios2z5aCGAOOdRAKlp9IICpDAfCVXYAogA4qxArcUhBUiuTpByCl4AcVJIvoOMU+ioAqQwX9FlBnGGQ7WQW6yLOgkgVS3crKYNazGgu2Hqv5WfPe7jexNABJApo88JkKiXu/vHof6VXveWCCD1dZQZxMUMEteGqbRAIjOIzCCeZpAktraGAYuXPe4yg8gMYivg5y1WXHvSw4BivA2ve9zHrpUZRGYQTzOI3GJdlKtQy93VnhB5zTua/Lw9pDvF02y2khlEZhBPM8hYY/WaN4o96WHfWgXd4y6ACCC+AAl7IKfVngAyERBZauLiFiutgzkKvwSQmqr2UhNZrCiATOBMAKnJYS9WlOXuAogAUn8qfkE2TFWFCfLWJ4rbnCRtygxSVb+6YeobAPzVvEwyiz779vOh0GdXmb1MAKmlbpsUbZAZZArIAkhVktGiDdYtAO/K7J87j47LDOIsmAAyppEq+yOF42w15BnkIjgCSFULu3DcsWOduKSj7Px3JR8tZAZxzqMAUtVIlR5V/1uk9VgCiADirMBoC7t4dRWQwnwsFECch4fMILZGE44/kAN0XJzwJHvSgQItdx9/gE7/OoAedP7bkv0WfmcQ2ZM+mvviADL+CDY5xLPpWyzZMHXxD2NhAJlwiKccA90UENmTXkBAxh8DXX1Q7wUwN/s3Uc0j8HOLJXvSCwfIcdKNHvtN1ljobPU/C9BKAWSqAnKLVTRAeBfpXbdOBKRs3gPGowJIfQWy9pAeZGVA4V/zMtaQYdgsjJtBrEUAHxJAGisge9KL8haLFpOuH54ASPU5JPeFrP08g+T9j8bk+Io+g6gv6GOa1P7HBqRs/hCMFXkeEAKIc3YLDQjzHjK6agxMAqR/FZged5Ywuy0EEOfcFRoQ4rtJ69pefwYxzfkgHHGWMLstBBDn3BUaEMaVZBg1BibMINXnkN8BWOAsYzZbCCDOeSswIEdIN64cr1A9QHK9R10AEUCaKLCNdOPLDoBYHwb4Z84yZrOFAOKct+LOICN/QXr3hLE/ZQap3madANDtLGX2WgggzjkrJCCMk2QYU8Z8fUBM8zEQ7naWMnstBBDnnBUUkMfJMO6ZrE4jQD4Iwi+cpcxeCwHEOWcFBeRDZBgvuQKkeps1AGCWs5zZaiGAOOergICcIt3orKdM3RnEBsQ07wPhfmc5s9VCAHHOV+EAIWwizXjAGyDl4z3gtmPOcmarRSNA/J7nl63o3XlbPEDOzyNtrtoPNeXXcAapziK7QVjuTtZstGoEiN8TYbMRtTcv3775M1Arl+v9crfllrGHDKPh+sPmgJTLN4Ere7zJm+7WjQBRXrc/8SDU8WVF/qkj5obuWt9QgtwBQqXlpGnPNwq4KSDVh/VcnUDVDBA1i7QuvQGtS2+E+v8i/dSMMbxvPy48vbNp2DkD5CjpxvxmATsDYpqrQXgkL4Ol2e1DXmKMMo5cAUKl1aRpjwUDhLkdZWswStHjtJ3VAgxxatSoryDbeNPg/xQftD91EL17KBAg9m1W2XwAjI2pDNKjU1ktwOAxzEiat21ca5dHysWPsIU04z6nWBxvsWxABgY6URnJRQV4da89tGUbKq++5qSN/Ps4BXL3lk9Vbp83r/6ruvFxux0FbJm5WQavIFHPIvJzr0DO3vBNWdbeSAlXM4g9i5w4YWBaa797SdPdUmYSd/lRH1DbN67N11u91mkGXX655UYB14DYkJjm10HY4MZwVtqo9/521fb/+d+suByLn6TNQumahfn7LsS8lYyur7gV0Rsgvb0z0NF+HMClbjuQdqJAahQgnEHb23Np5rvOuvXJEyD2LGJZ6wAuxFEJbkWUdllRYPRIAy/eegZkFBIz14UdvAgobTOjwJSCDG489wdIuX8lmJ5104G0EQXSoQCtJF3/vldffAFSfWDP3Upfr+JJ+4woMKlaohev/QNiWVcB/FsvnUlbUSAZBeg9pOtv+OnbNyDVB/ZNAH/NT8dyjSgQjwKVzaTP9r0zNhAg1Qd2VSb+ffEEK72IAp4UeIV0Y5GnKyY1Dg6Iaea2AkoQYeXaFCjAqFupxItngQGpziLqNmuTl46lrSgQsQL3k25sDtpHKIBUIVGnUwWazoIGI9eLAlUFDpNuLA5DjfAA6etbiNYWWUMeRlbERjAFSiNXU2f368GMjF4dGiD2LGKad4DwZBiOiQ1RwJcCjDvJMJ7ydW2di0IFpArJkyDcEZaDYkcUcK0A4ykyjDtdt3fRMHRARp9H+g8AdJ2L/qWJKBCSAnyQ9K4lIRmrmYkGkLfM+RjGATBmhO2w2BMF6ihwFowl449OC0ulSACxZ5H+/uUo0e6wHBU7okBDBYhXkNYVSYHDyACpPo/kqqaWDNEUKkBYQ5rxaFSeRQrI6PNIfoo9RJUEsetbAdfFF/z2EDkg1ZlkBwi3+XVSrhMFpihA2Ema8emolYkFkNGZxPoRwMuiDkjsF0KBfaQbsYyl+ABRJUwt65cgvLcQKZQgo1GA8WsMDf059fTEUg43NkDsWeTMmXfi3LkXBZJoxk7urSo4RkZupO7u03HFGisgNiTHjnWio2OvQBJXinPSj4JjcHCZm3KhYUYcOyACSZjpK4ithOBQ6iYCiA1JX99MtLTsl5mkIIPcb5gKjunTb6AZM/7o10SQ6xIDxIakt7cDHe3PAVgaJAi5NqcKEO1Fp3YzETU9wyPK6BMFZCwwLps7wPKdJMpEZ842YycZ0X/ncNIlFYDYs4l8cXfKVZH+PfIv5G7FTA0gNiRlczU4P+chuk2CtBunAGMNGdGtrfKqdaoAGYWkfzmYvisV5L2mMuPtVeX1Ef4cdUWzKtevOqkDxIbENBeA+BnZdOU3rVm7jg9iGv0tXWaoI8dT9UslILWHd9OU7bupGi4ROBPBNtkwvUw1INXZRApBhJnxNNkKucBCFKGlHhAbkoG+hai0fFvqbkUxBBKxeRjDI1+g7nBK80QZQSYAqd1yWaZUcIxyNMRjO5SKh/G4muBSE78B8mgt4IelYLZfBRO77hUw7iXDeCkxD3x0nKkZZHx8bJ3cBJTk6AUfSY//EtpMuu77CIL4/b3YY2YBsZ9N1CE+XNkCouVJiih9N1CAsQdEG/0eXpMGXTMNyMVnE+sWgL8KYEEaRBUfcATE/0ha166sa5ELQC6C0r8ORH8vBesSG5ZnAdpCuu7pqOXEvHXRca4AsW+7Tv/hUgx2bADRBhfxS5OwFGBsxdDQP1NPz5mwTKbBTu4Aqc0mb76pY/jCWgDqP/lFp8A2XBh+mObMMaPrIjnLuQWkBoraAz+9YxUYG5OTOYc9E7aAWrZTZ+dADqOrhZR7QGqg8O/bMfCOL4LxJQBX5DmpEcZ2FIxvQde/meQuvwjjm2K6MICMj5zL5ZtQqdwOgrwedjPa1OvaUukZ0rTn3TTPU5tCAlKbVcrHe4C2T4GxCsCsPCU2hFhOgbEdpfPfI21ubwj2Mmmi0IBMmFXUEhbgkwD+BoTZmcxmcKf7wPghgB9kbUlI8NDrWxBA6ujCVt/1QMvHqtVW8v7x8QiAfQD9O+n6z6MaaFm1K4A4ZM7e3Vjiv0YFf5WbJS2E3QD/Jyr0Ihnp28WXJpgEEI/ZYMtaBOYPgPg6gK4FMNejibibHwf4ZRAdANOvSNcPx+1AlvsTQAJmj8vlWahUrgHxQoCuqq4HC+UQex+uHQJwBOA3wPQ6SqXfkKad8mFHLqkqIIBENBTsIt1tbT1oaZmDEs9GBQYYnSBcBmBmtWqL2+8xRwGcBXAajLdAGEAJJip0EiMjJ3D+fG/cRZ0jki11Zv8f8Ad1qkQYwRcAAAAASUVORK5CYII=;" vertex="1" parent="1">
          <mxGeometry x="970" y="2180" width="30" height="30" as="geometry" />
        </mxCell>
      </root>
    </mxGraphModel>
  </diagram>
</mxfile>
